<?xml version="1.0" standalone="no"?>
<!DOCTYPE svg PUBLIC "-//W3C//DTD SVG 20010904//EN"
 "http://www.w3.org/TR/2001/REC-SVG-20010904/DTD/svg10.dtd">
<svg version="1.0" xmlns="http://www.w3.org/2000/svg"
 width="512.000000pt" height="512.000000pt" viewBox="0 0 512.000000 512.000000"
 preserveAspectRatio="xMidYMid meet">

<g transform="translate(0.000000,512.000000) scale(0.100000,-0.100000)"
fill="#000000" stroke="none">
<path d="M2414 5100 c-130 -34 -257 -116 -332 -213 -53 -68 -107 -185 -121
-261 -7 -40 -11 -296 -11 -758 l0 -698 -698 0 c-449 0 -719 -4 -758 -11 -32
-5 -100 -30 -149 -54 -151 -73 -266 -206 -318 -370 -31 -98 -31 -252 0 -350
61 -192 197 -331 400 -408 58 -22 64 -22 790 -25 l732 -3 3 -732 c3 -726 3
-732 25 -790 58 -153 150 -267 274 -340 240 -141 540 -104 736 92 70 70 116
143 156 248 22 58 22 64 25 790 l3 732 732 3 c726 3 732 3 790 25 203 78 339
216 400 408 17 54 22 94 22 175 0 81 -5 121 -22 175 -48 151 -161 290 -291
358 -143 76 -86 71 -899 74 l-732 4 -3 732 c-3 726 -3 732 -25 790 -40 104
-86 177 -153 246 -150 151 -375 214 -576 161z"/>
</g>
</svg>
